<svg width="84" height="20" fill="none" xmlns="http://www.w3.org/2000/svg"><path fill-rule="evenodd" clip-rule="evenodd" d="M1.954 0A1.943 1.943 0 0 0 0 1.933v16.134C0 19.135.875 20 1.954 20h72.58c.763 0 1.456-.439 1.775-1.124l7.51-16.135C84.415 1.461 83.469 0 82.044 0H1.954Zm50.048 13.87h2.035L55.943 4h-2.028l-1.913 9.87Zm-38.749-1.4c.41-.502.657-1.076.738-1.723l-2.085.013c-.124.549-.38.97-.767 1.266-.382.292-.893.427-1.533.405-.463-.013-.824-.152-1.082-.418-.258-.27-.399-.687-.423-1.253-.019-.445.048-1.116.2-2.011.158-.921.467-1.622.925-2.101.464-.48 1.053-.71 1.77-.688.554.017.963.163 1.225.437.263.274.394.707.394 1.298l2.092.006c-.062-1.032-.41-1.837-1.046-2.416-.63-.582-1.485-.882-2.565-.9-.993-.017-1.877.223-2.65.72a4.908 4.908 0 0 0-1.427 1.446 5.922 5.922 0 0 0-.83 2.089c-.154.784-.213 1.44-.18 1.966.038.673.203 1.268.494 1.787.297.514.7.908 1.211 1.182.511.27 1.11.411 1.799.424a5.41 5.41 0 0 0 2.135-.379c.66-.27 1.194-.653 1.605-1.15Zm6.508.77c-.01.245.017.455.08.63h1.984l.007-.121c-.09-.21-.131-.468-.122-.772l.036-.41.595-3.33c.081-.71-.127-1.291-.624-1.741-.496-.454-1.184-.69-2.063-.707-.95-.009-1.75.195-2.4.61-.645.412-.985.95-1.018 1.613l2.028-.006a.987.987 0 0 1 .423-.636c.22-.15.487-.22.802-.212.239.004.43.064.573.18a.656.656 0 0 1 .258.469 1.3 1.3 0 0 1-.021.405l-.1.417-.946-.013c-1.137 0-2.045.204-2.723.611-.674.403-1.027.983-1.06 1.741-.03.57.178 1.05.623 1.44.449.386 1.012.583 1.69.591.736.017 1.396-.236 1.978-.758Zm.05-1.33c-.434.472-.943.699-1.526.682-.253-.005-.454-.073-.602-.206-.143-.137-.195-.321-.157-.552.029-.206.102-.38.222-.521.33-.39.867-.593 1.612-.61l.702.006-.25 1.202Zm9.174-3.251a4.635 4.635 0 0 0-.68-.064c-.722-.017-1.293.225-1.713.726l-.895 4.55h-2.021l1.347-6.954 1.899-.006-.187.848c.488-.655 1.09-.983 1.806-.983.2 0 .435.03.702.09l-.258 1.793Zm2.31 4.897c.525.291 1.127.439 1.805.443.631.009 1.221-.096 1.77-.315.55-.223.97-.531 1.261-.925l-.924-1.028c-.554.527-1.199.781-1.934.764-.454-.008-.813-.147-1.075-.417-.263-.27-.385-.63-.366-1.08h4.75l.115-.79c.125-.981-.071-1.791-.587-2.43-.511-.642-1.266-.972-2.264-.989a3.81 3.81 0 0 0-1.92.437 3.762 3.762 0 0 0-1.42 1.304 4.177 4.177 0 0 0-.659 1.864l-.021.257a3.074 3.074 0 0 0 .301 1.697c.258.51.647.912 1.168 1.208ZM32.749 8.6c.292-.218.624-.323.996-.315.287.005.523.077.71.219.186.137.303.33.35.578a1.53 1.53 0 0 1-.006.488l-.043.168h-2.78c.229-.54.487-.92.773-1.138Zm12.157 1.973-.645 3.297h-2.099l1.813-9.357 3.654.007c1.127 0 2.014.28 2.658.841.645.562.927 1.294.846 2.198-.077.917-.504 1.65-1.283 2.198-.773.548-1.762.822-2.966.822l-1.978-.006Zm.294-1.562 1.748.013c.564 0 1.032-.13 1.405-.392.372-.261.594-.615.666-1.06.072-.446-.01-.801-.243-1.067-.23-.265-.571-.407-1.025-.424l-1.978-.006-.573 2.936Zm15.654 4.859a1.693 1.693 0 0 1-.08-.63c-.582.523-1.241.775-1.977.758-.678-.008-1.242-.206-1.69-.591-.445-.39-.653-.87-.624-1.44.033-.758.387-1.338 1.06-1.741.679-.407 1.586-.61 2.723-.61l.946.012.1-.417c.029-.142.036-.277.022-.405a.656.656 0 0 0-.258-.47c-.144-.115-.335-.175-.574-.18-.315-.008-.582.063-.802.213a.988.988 0 0 0-.423.636l-2.028.006c.034-.664.373-1.201 1.018-1.613.65-.415 1.45-.619 2.4-.61.88.017 1.567.253 2.064.707.497.45.704 1.03.623 1.741l-.594 3.33-.036.41c-.01.304.03.562.122.771l-.008.123h-1.984Zm-1.555-1.28c.583.018 1.091-.21 1.526-.68l.25-1.202-.702-.006c-.745.017-1.282.22-1.612.61-.119.141-.193.315-.222.52-.038.232.015.416.158.553.148.133.349.202.602.206Zm8.414-4.857.172-.823-1.892.006-1.347 6.954h2.021l.967-4.91c.42-.458.896-.679 1.426-.662.55.013.855.238.917.675.015.137.01.289-.014.456l-.831 4.44h2.02l.817-4.42c.096-.827-.03-1.474-.38-1.941-.348-.467-.888-.707-1.619-.72-.884-.017-1.636.298-2.257.945Z" fill="#903E38"/></svg>